<svg width="84" height="57" viewBox="0 0 84 57" fill="none" xmlns="http://www.w3.org/2000/svg">
<g clip-path="url(#clip0_137_62)">
<path fill-rule="evenodd" clip-rule="evenodd" d="M42.0836 56.9252L42.0088 57L29.4313 44.4225L29.5061 44.3477L24.3711 39.2128L59.7961 39.2128L54.6611 44.3477L54.7359 44.4225L42.1584 57L42.0836 56.9252ZM59.7961 39.2128H80.416V57L42.1584 57H42.0088H3.70853V39.2128L24.3711 39.2128L3.63985 18.4815L16.2173 5.904L33.0577 22.7443V3.63829H50.8449L50.8449 23.009L67.9499 5.904L80.5273 18.4815L59.7961 39.2128Z" fill="white"/>
<path d="M79.3496 5.63945V1.65552H80.5994C80.8504 1.65552 81.0687 1.70463 81.2543 1.80287C81.4398 1.89746 81.5835 2.03208 81.6854 2.20672C81.7909 2.38136 81.8437 2.58692 81.8437 2.82341C81.8437 3.08901 81.7745 3.32004 81.6363 3.51651C81.5017 3.70934 81.3179 3.84577 81.0851 3.92582L81.8982 5.63945H81.227L80.5011 4.00222H79.939V5.63945H79.3496ZM79.939 3.48376H80.5994C80.7958 3.48376 80.9523 3.42555 81.0687 3.30912C81.1851 3.18906 81.2433 3.03079 81.2433 2.83433C81.2433 2.63058 81.1851 2.4705 81.0687 2.35407C80.9523 2.23765 80.7958 2.17943 80.5994 2.17943H79.939V3.48376Z" fill="white"/>
<path fill-rule="evenodd" clip-rule="evenodd" d="M80.5279 7.2766C82.5373 7.2766 84.1662 5.64767 84.1662 3.6383C84.1662 1.62892 82.5373 0 80.5279 0C78.5186 0 76.8896 1.62892 76.8896 3.6383C76.8896 5.64767 78.5186 7.2766 80.5279 7.2766ZM80.5283 6.54894C82.1358 6.54894 83.4389 5.24581 83.4389 3.63831C83.4389 2.03081 82.1358 0.727668 80.5283 0.727668C78.9208 0.727668 77.6176 2.03081 77.6176 3.63831C77.6176 5.24581 78.9208 6.54894 80.5283 6.54894Z" fill="white"/>
</g>
<defs>
<clipPath id="clip0_137_62">
<rect width="84" height="57" fill="white"/>
</clipPath>
</defs>
</svg>
